<svg xmlns="http://www.w3.org/2000/svg" width="53.333" height="40" viewBox="0 0 53.333 40"><path d="M53.13,82.283l.017-.011-4.258-6.387V68.443A4.45,4.45,0,0,0,44.444,64H8.889a4.45,4.45,0,0,0-4.444,4.444v7.441L.187,82.272l.017.011a1.081,1.081,0,0,0-.2.6V99.555A4.45,4.45,0,0,0,4.444,104H48.889a4.45,4.45,0,0,0,4.444-4.444V82.888A1.081,1.081,0,0,0,53.13,82.283Zm-4.241-2.392,1.257,1.886H48.889Zm-5.047-13.67L27.847,79.208a2.369,2.369,0,0,1-2.281.059L9.492,66.221ZM6.667,68.444a2.167,2.167,0,0,1,.457-1.282l17.137,13.9a4.407,4.407,0,0,0,4.733.051,1.2,1.2,0,0,0,.182-.12L46.21,67.162a2.167,2.167,0,0,1,.457,1.282V81.777H42.222a4.45,4.45,0,0,0-4.444,4.444,2.224,2.224,0,0,1-2.222,2.222H17.778a2.224,2.224,0,0,1-2.222-2.222,4.45,4.45,0,0,0-4.444-4.444H6.667ZM4.444,79.891v1.886H3.187ZM51.111,99.555a2.224,2.224,0,0,1-2.222,2.222H4.444a2.224,2.224,0,0,1-2.222-2.222V84h8.889a2.224,2.224,0,0,1,2.222,2.222,4.45,4.45,0,0,0,4.444,4.444H35.556A4.45,4.45,0,0,0,40,86.221,2.224,2.224,0,0,1,42.222,84h8.889V99.555Z" transform="translate(0 -63.999)" fill="#707070"/></svg>