<svg xmlns="http://www.w3.org/2000/svg" width="17.787" height="14" viewBox="0 0 17.787 14"><g transform="translate(0 -44.8)"><g transform="translate(0 44.8)"><g transform="translate(0 0)"><path d="M17.2,46.981a1.912,1.912,0,0,0-1.4-.592H12.985v-.034a1.518,1.518,0,0,0-.457-1.1,1.547,1.547,0,0,0-1.1-.457H6.357a1.559,1.559,0,0,0-1.572,1.556v.034H2a1.912,1.912,0,0,0-1.4.592A2.01,2.01,0,0,0,0,48.385V56.8a1.912,1.912,0,0,0,.592,1.4A2.01,2.01,0,0,0,2,58.8h13.8a1.912,1.912,0,0,0,1.4-.592,2.01,2.01,0,0,0,.592-1.4v-8.42A1.912,1.912,0,0,0,17.2,46.981ZM16.908,56.8h-.017a1.1,1.1,0,0,1-1.1,1.1H2A1.1,1.1,0,0,1,.9,56.8v-8.42a1.1,1.1,0,0,1,1.1-1.1H5.258a.455.455,0,0,0,.457-.457v-.49a.636.636,0,0,1,.659-.659H11.43a.636.636,0,0,1,.659.659v.49a.455.455,0,0,0,.457.457h3.263a1.1,1.1,0,0,1,1.1,1.1Z" transform="translate(0 -44.8)" fill="#fff"/><path d="M116.159,130.8a4.156,4.156,0,1,0,2.942,1.217A4.167,4.167,0,0,0,116.159,130.8Zm2.3,6.476a3.266,3.266,0,0,1-4.6,0,3.232,3.232,0,0,1-.947-2.3,3.3,3.3,0,0,1,.947-2.3,3.232,3.232,0,0,1,2.3-.947,3.3,3.3,0,0,1,2.3.947,3.232,3.232,0,0,1,.947,2.3A3.164,3.164,0,0,1,118.459,137.276Z" transform="translate(-107.266 -127.165)" fill="#fff"/><circle cx="0.829" cy="0.829" r="0.829" transform="translate(14.085 3.618)" fill="#fff"/></g></g></g></svg>