<svg xmlns="http://www.w3.org/2000/svg" width="40" height="40" viewBox="0 0 40 40"><circle cx="19.5" cy="19.5" r="19.5" transform="translate(0.443 0.5)" fill="#fee8d6"/><path d="M34.142,5.858A20,20,0,0,0,5.858,34.142,20,20,0,0,0,34.142,5.858ZM20,37.656A17.656,17.656,0,1,1,37.656,20,17.676,17.676,0,0,1,20,37.656Z" fill="#f89624"/><g transform="translate(13.807 7.531)"><path d="M184.182,107.7h-2.51a2.594,2.594,0,1,1,0-5.187h5.021a1.172,1.172,0,0,0,0-2.344H184.1V97.573a1.172,1.172,0,0,0-2.344,0v2.594h-.083a4.937,4.937,0,1,0,0,9.875h2.51a2.594,2.594,0,0,1,0,5.188h-5.021a1.172,1.172,0,0,0,0,2.344h2.594v2.594a1.172,1.172,0,1,0,2.344,0v-2.594h.083a4.938,4.938,0,0,0,0-9.875Z" transform="translate(-176.734 -96.401)" fill="#f89624"/></g></svg>