<svg xmlns="http://www.w3.org/2000/svg" width="31" height="41.003" viewBox="0 0 31 41.003"><g transform="translate(0.5 0.503)"><g transform="translate(0 0)"><path d="M93.447,5.047,79.28.047a.832.832,0,0,0-.555,0l-14.166,5A.835.835,0,0,0,64,5.833v10C64,28.774,65.922,33.5,78.628,39.91a.831.831,0,0,0,.75,0C92.084,33.5,94,28.774,94,15.833v-10A.835.835,0,0,0,93.447,5.047ZM92.336,15.833c0,12.395-1.58,16.407-13.333,22.4-11.753-5.992-13.333-10-13.333-22.4V6.423L79,1.717,92.336,6.423v9.41Z" transform="translate(-64.003 0.001)" fill="#707070" stroke="#707070" stroke-width="1"/><path d="M161.67,112.505v.833A1.669,1.669,0,0,0,160,115.005v8.333a1.669,1.669,0,0,0,1.667,1.667h11.666A1.669,1.669,0,0,0,175,123.339v-8.333a1.669,1.669,0,0,0-1.667-1.667v-.833a5.833,5.833,0,1,0-11.666,0Zm11.666,10.833H161.67v-8.333h0l0-.833v.833h11.666Zm-1.667-10.833v.833h-8.333v-.833a4.167,4.167,0,0,1,8.333,0Z" transform="translate(-152.503 -98.338)" fill="#707070" stroke="#707070" stroke-width="1"/><path d="M235.5,237.75v1.09a.833.833,0,0,0,1.667,0v-1.09a1.645,1.645,0,0,0,.833-1.41,1.667,1.667,0,0,0-3.333,0A1.644,1.644,0,0,0,235.5,237.75Z" transform="translate(-221.338 -216.339)" fill="#707070" stroke="#707070" stroke-width="1"/></g></g></svg>