<svg xmlns="http://www.w3.org/2000/svg" xmlns:xlink="http://www.w3.org/1999/xlink" width="53.333" height="40" viewBox="0 0 53.333 40"><defs><linearGradient id="a" x1="-0.283" y1="2.702" x2="-0.251" y2="2.643" gradientUnits="objectBoundingBox"><stop offset="0" stop-opacity="0.102"/><stop offset="1" stop-opacity="0"/></linearGradient><linearGradient id="b" x1="-0.09" y1="1.498" x2="-0.043" y2="1.469" gradientUnits="objectBoundingBox"><stop offset="0" stop-color="#fff" stop-opacity="0.2"/><stop offset="1" stop-color="#fff" stop-opacity="0"/></linearGradient></defs><g transform="translate(0 -63.999)"><path d="M53.13,82.283l.017-.011-4.258-6.387V68.443A4.45,4.45,0,0,0,44.444,64H8.889a4.45,4.45,0,0,0-4.444,4.444v7.441L.187,82.272l.017.011a1.081,1.081,0,0,0-.2.6V99.555A4.45,4.45,0,0,0,4.444,104H48.889a4.449,4.449,0,0,0,4.444-4.444V82.888A1.081,1.081,0,0,0,53.13,82.283Z" fill="#f89624"/><path d="M470.59,218.449h-1.257v-1.886Z" transform="translate(-420.444 -136.672)" fill="#fee8d6"/><path d="M64,95.642a2.167,2.167,0,0,1,.457-1.282l17.137,13.9a4.407,4.407,0,0,0,4.733.051,1.2,1.2,0,0,0,.182-.12L103.543,94.36A2.167,2.167,0,0,1,104,95.642v13.333H99.555a4.45,4.45,0,0,0-4.444,4.444,2.224,2.224,0,0,1-2.222,2.222H75.111a2.224,2.224,0,0,1-2.222-2.222,4.45,4.45,0,0,0-4.444-4.444H64Z" transform="translate(-57.333 -27.198)" fill="#fafafa"/><path d="M91.125,85.333h34.35L109.48,98.32a2.369,2.369,0,0,1-2.281.059Z" transform="translate(-81.633 -19.112)" fill="#fff"/><g transform="translate(2.222 79.891)"><path d="M31.855,218.449H30.6l1.257-1.886Z" transform="translate(-29.633 -216.563)" fill="#fee8d6"/><path d="M70.223,271.555A2.224,2.224,0,0,1,68,273.778H23.556a2.224,2.224,0,0,1-2.222-2.222V256h8.889a2.224,2.224,0,0,1,2.222,2.222,4.45,4.45,0,0,0,4.444,4.444H54.667a4.449,4.449,0,0,0,4.444-4.444A2.224,2.224,0,0,1,61.334,256h8.889v15.555Z" transform="translate(-21.334 -251.892)" fill="#fee8d6"/></g><path d="M96.816,115.641a2.224,2.224,0,0,0,2.222-2.222,4.45,4.45,0,0,1,4.444-4.444h4.444V95.641a2.167,2.167,0,0,0-.457-1.282L90.436,108.19a1.206,1.206,0,0,1-.182.12,4.407,4.407,0,0,1-4.733-.051l-17.137-13.9,21.282,21.282h7.15Z" transform="translate(-61.261 -27.198)" fill="url(#a)"/><path d="M470.59,218.449h-1.257v-1.886Z" transform="translate(-420.444 -136.672)" fill="#fee8d6" opacity="0.15"/><path d="M31.855,218.449H30.6l1.257-1.886Z" transform="translate(-27.411 -136.672)" fill="#fee8d6" opacity="0.1"/><path d="M53.13,82.283l.017-.011-4.258-6.387V68.443A4.45,4.45,0,0,0,44.444,64H8.889a4.45,4.45,0,0,0-4.444,4.444v7.441L.187,82.272l.017.011a1.081,1.081,0,0,0-.2.6V99.555A4.45,4.45,0,0,0,4.444,104H48.889a4.449,4.449,0,0,0,4.444-4.444V82.888A1.081,1.081,0,0,0,53.13,82.283Z" fill="url(#b)"/></g></svg>