<svg xmlns="http://www.w3.org/2000/svg" width="18" height="18" viewBox="0 0 18 18"><circle cx="0.882" cy="0.882" r="0.882" transform="translate(8.118 12.422)" fill="#f89624"/><path d="M9,0a9,9,0,1,0,9,9A9,9,0,0,0,9,0ZM9,16.594A7.594,7.594,0,1,1,16.594,9,7.59,7.59,0,0,1,9,16.594Z" fill="#f89624"/><path d="M178.823,128.5A2.827,2.827,0,0,0,176,131.323a.706.706,0,1,0,1.412,0,1.412,1.412,0,1,1,1.412,1.412.706.706,0,0,0-.706.706v1.765a.706.706,0,0,0,1.412,0v-1.148a2.824,2.824,0,0,0-.706-5.558Z" transform="translate(-169.823 -123.995)" fill="#f89624"/></svg>