<svg xmlns="http://www.w3.org/2000/svg" width="39.997" height="40" viewBox="0 0 39.997 40"><circle cx="14.5" cy="14.5" r="14.5" transform="translate(10.252 0.5)" fill="#fee8d6"/><path d="M31.336,20H17.973V12.825h4.043V7.945h5.474v7.537h3.847Z" fill="#fff"/><path d="M213.165,104.062h14.062a1.172,1.172,0,0,0,1.172-1.172V98.2a1.172,1.172,0,0,0-1.172-1.172h-3.516V91.172A1.172,1.172,0,0,0,222.54,90h-4.687a1.172,1.172,0,0,0-1.172,1.172v3.516h-3.516a1.172,1.172,0,0,0-1.172,1.172v7.031A1.172,1.172,0,0,0,213.165,104.062Zm10.547-4.687h2.344v2.344h-2.344Zm-4.687-7.031h2.344v9.375h-2.344Zm-4.687,4.687h2.344v4.687h-2.344Z" transform="translate(-195.433 -82.969)" fill="#f89624"/><path d="M6.017,38.969,16.788,28.2a15.247,15.247,0,1,0-4.971-4.971L1.045,34a3.515,3.515,0,0,0,4.971,4.971ZM24.78,2.344a12.89,12.89,0,1,1-12.89,12.89A12.9,12.9,0,0,1,24.78,2.344ZM2.7,35.655,13.217,25.141A15.375,15.375,0,0,0,14.874,26.8L4.359,37.312A1.172,1.172,0,1,1,2.7,35.655Z" transform="translate(-0.017)" fill="#f89624"/></svg>