<svg xmlns="http://www.w3.org/2000/svg" width="19.568" height="17.938" viewBox="0 0 19.568 17.938"><path d="M14.4,181.7a1.817,1.817,0,0,1-.466-.061L1.355,178.219A1.88,1.88,0,0,1,.06,175.941l1.383-5.389a.607.607,0,0,1,.744-.443.621.621,0,0,1,.436.756l-1.383,5.39a.632.632,0,0,0,.434.766l12.571,3.422a.605.605,0,0,0,.741-.435l.429-1.761a.611.611,0,0,1,.739-.453.621.621,0,0,1,.446.75l-.431,1.769A1.837,1.837,0,0,1,14.4,181.7Zm0,0" transform="translate(0 -163.765)" fill="#666"/><path d="M99.993,13.718H87.18a1.862,1.862,0,0,1-1.86-1.86V2.352A1.862,1.862,0,0,1,87.18.492H99.993a1.862,1.862,0,0,1,1.86,1.86v9.506A1.862,1.862,0,0,1,99.993,13.718ZM87.18,1.732a.62.62,0,0,0-.62.62v9.506a.62.62,0,0,0,.62.62H99.993a.62.62,0,0,0,.62-.62V2.352a.62.62,0,0,0-.62-.62Zm0,0" transform="translate(-82.285 -0.492)" fill="#666"/><path d="M150.974,67.8a1.653,1.653,0,1,1,1.653-1.653A1.655,1.655,0,0,1,150.974,67.8Zm0-2.067a.413.413,0,1,0,.413.413A.414.414,0,0,0,150.974,65.732Zm0,0" transform="translate(-143.629 -62.012)" fill="#666"/><path d="M86.374,121.489a.62.62,0,0,1-.438-1.059l3.736-3.736a1.451,1.451,0,0,1,2.05,0l1,1,3.07-3.685a1.446,1.446,0,0,1,1.1-.522A1.329,1.329,0,0,1,98,114l4.115,4.8a.62.62,0,0,1-.942.808l-4.117-4.8a.248.248,0,0,0-.159-.074.208.208,0,0,0-.159.075l-3.5,4.208a.619.619,0,0,1-.448.222.608.608,0,0,1-.466-.181l-1.48-1.48a.179.179,0,0,0-.3,0l-3.736,3.736A.616.616,0,0,1,86.374,121.489Zm0,0" transform="translate(-82.702 -109.213)" fill="#666"/></svg>