<svg xmlns="http://www.w3.org/2000/svg" width="32" height="40" viewBox="0 0 32 40"><g transform="translate(-1147 -15)"><path d="M10,0H32a0,0,0,0,1,0,0V40a0,0,0,0,1,0,0H10A10,10,0,0,1,0,30V10A10,10,0,0,1,10,0Z" transform="translate(1147 15)" opacity="0.5"/><g transform="translate(1166.339 28.973) rotate(90)"><g transform="translate(0 0)"><path d="M11.51,6.169a.485.485,0,0,1-.686,0l-5-5-5,5a.485.485,0,0,1-.686-.686L5.483.142a.485.485,0,0,1,.687,0L11.51,5.483A.485.485,0,0,1,11.51,6.169Z" transform="translate(0 0)" fill="#fff" stroke="#fff" stroke-width="1"/></g></g></g></svg>