<svg xmlns="http://www.w3.org/2000/svg" width="19.93" height="18.31" viewBox="0 0 19.93 18.31"><g transform="translate(0.25 0.25)"><g transform="translate(0 0)"><path d="M15.59,21.333a3.814,3.814,0,0,0-2.715,1.125L4.028,31.305a2.695,2.695,0,1,0,3.811,3.811l8.234-8.234a.4.4,0,0,0-.572-.572L7.266,34.543A1.885,1.885,0,1,1,4.6,31.877l8.847-8.847a3.03,3.03,0,0,1,4.285,4.285l-9.8,9.8a4.175,4.175,0,0,1-5.9-5.9l9.183-9.183a.4.4,0,0,0-.572-.572L1.46,30.635a4.984,4.984,0,0,0,7.049,7.049l9.8-9.8a3.839,3.839,0,0,0-2.715-6.554Z" transform="translate(0 -21.333)" fill="#666" stroke="#707070" stroke-width="0.5"/></g></g></svg>