<svg id="bin_1_" data-name="bin(1)" xmlns="http://www.w3.org/2000/svg" width="17.179" height="21.151" viewBox="0 0 17.179 21.151">
  <path id="Path_429" data-name="Path 429" d="M222.894,154.7a.5.5,0,0,0-.5.5v9.362a.5.5,0,1,0,.991,0V155.2A.5.5,0,0,0,222.894,154.7Zm0,0" transform="translate(-211.382 -147.04)" fill="#ff7c7c"/>
  <path id="Path_430" data-name="Path 430" d="M104.894,154.7a.5.5,0,0,0-.5.5v9.362a.5.5,0,1,0,.991,0V155.2A.5.5,0,0,0,104.894,154.7Zm0,0" transform="translate(-99.227 -147.04)" fill="#ff7c7c"/>
  <path id="Path_431" data-name="Path 431" d="M1.4,6.3V18.5a2.733,2.733,0,0,0,.727,1.885,2.439,2.439,0,0,0,1.77.765h9.372a2.439,2.439,0,0,0,1.77-.765,2.733,2.733,0,0,0,.727-1.885V6.3a1.892,1.892,0,0,0-.485-3.721H12.747V1.955A1.946,1.946,0,0,0,10.785,0h-4.4A1.946,1.946,0,0,0,4.425,1.955v.619H1.889A1.892,1.892,0,0,0,1.4,6.3ZM13.272,20.159H3.9A1.569,1.569,0,0,1,2.394,18.5V6.339H14.778V18.5A1.569,1.569,0,0,1,13.272,20.159ZM5.416,1.955A.954.954,0,0,1,6.387.989h4.4a.954.954,0,0,1,.971.966v.619H5.416ZM1.889,3.565H15.283a.892.892,0,0,1,0,1.783H1.889a.892.892,0,1,1,0-1.783Zm0,0" transform="translate(0.003 0.001)" fill="#ff7c7c"/>
  <path id="Path_432" data-name="Path 432" d="M163.894,154.7a.5.5,0,0,0-.5.5v9.362a.5.5,0,1,0,.991,0V155.2A.5.5,0,0,0,163.894,154.7Zm0,0" transform="translate(-155.304 -147.04)" fill="#ff7c7c"/>
</svg>
