<svg xmlns="http://www.w3.org/2000/svg" viewBox="0 0 265.57 265.36"><defs><style>.cls-1{isolation:isolate;}.cls-2{fill:#27afac;}.cls-14,.cls-24,.cls-3{fill:#223b59;}.cls-3{opacity:0.35;}.cls-31,.cls-4{fill:#fff;}.cls-5{fill:#8c1559;}.cls-6{fill:#b71d67;}.cls-7{fill:#d62b85;}.cls-12,.cls-8{fill:none;stroke-miterlimit:10;}.cls-8{stroke:#126466;stroke-width:1.08px;}.cls-9{fill:#197f7f;}.cls-10{fill:#0c4c4a;}.cls-11{fill:#126466;}.cls-12{stroke:#39514e;stroke-width:0.54px;}.cls-13{fill:#39514e;}.cls-14,.cls-28{opacity:0.3;}.cls-15{fill:#eabf73;}.cls-16{fill:#f7d694;}.cls-17{fill:#ddd6a6;}.cls-18{fill:#720e4c;}.cls-19{fill:#1a1635;}.cls-20{fill:#292551;}.cls-21{fill:#14273a;}.cls-22,.cls-25,.cls-29,.cls-31{opacity:0.5;}.cls-23,.cls-25{fill:#0a1721;}.cls-26{fill:#fcec9d;}.cls-27{fill:#ce8865;}.cls-28{fill:#353440;}.cls-28,.cls-30{mix-blend-mode:multiply;}.cls-29{fill:#2d3d3b;}.cls-30{fill:#652c6b;opacity:0.2;}.cls-31{mix-blend-mode:overlay;}</style></defs><title>business_vector</title><g class="cls-1"><g id="Layer_2" data-name="Layer 2"><g id="OBJECTS"><path class="cls-2" d="M39.92,169.63a96.72,96.72,0,0,1-15.24-8.74c-15-10.65-31-30.14-9-42.92,24.15-14,55.51-11.49,78.56-27.76,11.49-8.12,19.17-20.09,25.61-32.2s12-24.75,20.51-35.66c9.66-12.4,26-24.57,43.16-22A67.3,67.3,0,0,1,217,15.21c13.47,11.35,21.59,27.25,25.62,43.65,4.35,17.71,1.57,36-4.83,53.19a91.46,91.46,0,0,1-36.38,44.58c-14.08,9-30.46,14.31-46.94,18.32-19,4.63-38.54,7.71-58.14,7.22C77.73,181.71,57.31,177.69,39.92,169.63Z"/><ellipse class="cls-2" cx="73.3" cy="45.87" rx="31.91" ry="12.71" transform="translate(-13.11 42.79) rotate(-30)"/><rect class="cls-3" y="59.16" width="60.24" height="80.71"/><rect class="cls-4" x="2.32" y="57.34" width="60.24" height="80.71"/><rect class="cls-5" x="14.42" y="80.91" width="5.25" height="43.88"/><rect class="cls-5" x="22.59" y="112.74" width="5.25" height="12.05"/><rect class="cls-6" x="30.76" y="100.96" width="5.25" height="23.83"/><rect class="cls-5" x="38.92" y="92.56" width="5.25" height="32.23"/><rect class="cls-7" x="47.09" y="80.91" width="5.25" height="43.88"/><line class="cls-8" x1="9.82" y1="67.88" x2="9.82" y2="124.6"/><line class="cls-8" x1="14.49" y1="128.8" x2="56.27" y2="128.8"/><rect class="cls-3" x="202.63" y="51.95" width="62.94" height="69.58"/><rect class="cls-4" x="200.85" y="49.78" width="62.94" height="69.58"/><path class="cls-7" d="M228.08,86.78c.95-.09,1.76-.19,2.43-.32A10.93,10.93,0,0,0,232.2,86a4.18,4.18,0,0,0,1.08-.52,2.3,2.3,0,0,0,.61-.59,1.71,1.71,0,0,0,.27-.66,4,4,0,0,0,.05-.69,2,2,0,0,0-.16-.82,1.93,1.93,0,0,0-.44-.63,2,2,0,0,0-.65-.41,2.26,2.26,0,0,0-.79-.14,2.34,2.34,0,0,0-.74.12,2,2,0,0,0-.64.38,1.82,1.82,0,0,0-.47.62,2.15,2.15,0,0,0-.19.88h-4.5a5.66,5.66,0,0,1,.45-2.26,5.06,5.06,0,0,1,1.32-1.8,6.45,6.45,0,0,1,2.17-1.19,9.51,9.51,0,0,1,3-.43,10,10,0,0,1,3.15.43,6,6,0,0,1,2.16,1.19,4.52,4.52,0,0,1,1.24,1.8,6.21,6.21,0,0,1,.4,2.26,4.79,4.79,0,0,1-.41,1.91,5.2,5.2,0,0,1-1.22,1.7,6.68,6.68,0,0,1-2,1.3,9.1,9.1,0,0,1-2.87.68v2h-4.5ZM231,97.52a4.21,4.21,0,0,1-1.45-.22,3.08,3.08,0,0,1-1-.58,2.66,2.66,0,0,1-.6-.83,2.39,2.39,0,0,1-.19-.94,2.26,2.26,0,0,1,.21-1,2.32,2.32,0,0,1,.62-.82,3,3,0,0,1,1-.59,4.66,4.66,0,0,1,2.83,0,3,3,0,0,1,1,.59A2.38,2.38,0,0,1,234,94a2.25,2.25,0,0,1,.21.94,2.45,2.45,0,0,1-.19,1,2.66,2.66,0,0,1-.6.83,3.13,3.13,0,0,1-1,.58A4.21,4.21,0,0,1,231,97.52Z"/><path class="cls-9" d="M240.28,66.1c0,2.66-3.84,4.82-8.58,4.82s-8.57-2.16-8.57-4.82,3.84-4.81,8.57-4.81S240.28,63.45,240.28,66.1Z"/><path class="cls-5" d="M259.41,81.46c0,2.66-3.84,4.82-8.58,4.82s-8.57-2.16-8.57-4.82,3.84-4.81,8.57-4.81S259.41,78.8,259.41,81.46Z"/><path class="cls-6" d="M255.73,103.26c0,2.66-3.84,4.81-8.57,4.81s-8.58-2.15-8.58-4.81,3.84-4.81,8.58-4.81S255.73,100.6,255.73,103.26Z"/><path class="cls-10" d="M227.22,103.26c0,2.66-3.84,4.81-8.57,4.81s-8.58-2.15-8.58-4.81,3.84-4.81,8.58-4.81S227.22,100.6,227.22,103.26Z"/><path class="cls-11" d="M221.33,81.46c0,2.66-3.83,4.82-8.57,4.82s-8.58-2.16-8.58-4.82,3.84-4.81,8.58-4.81S221.33,78.8,221.33,81.46Z"/><rect class="cls-3" x="99.69" y="15.86" width="60.24" height="80.71"/><rect class="cls-4" x="101.86" y="13.69" width="60.24" height="80.71"/><rect class="cls-9" x="120.07" y="22.69" width="23.96" height="2.83"/><rect class="cls-9" x="109.93" y="62.94" width="44.24" height="2.53"/><rect class="cls-5" x="110.1" y="37.52" width="12.49" height="2.71"/><rect class="cls-5" x="141.51" y="37.52" width="12.49" height="2.71"/><rect class="cls-10" x="125.81" y="43.76" width="12.49" height="2.71"/><rect class="cls-7" x="125.81" y="84.53" width="12.49" height="2.71"/><rect class="cls-7" x="142.28" y="84.53" width="12.49" height="2.71"/><rect class="cls-7" x="109.47" y="84.53" width="12.49" height="2.71"/><line class="cls-5" x1="132.05" y1="39.95" x2="132.05" y2="26.92"/><line class="cls-12" x1="132.05" y1="36.85" x2="132.05" y2="26.92"/><polygon class="cls-13" points="132.05 39.95 133.83 35.58 132.05 36.62 130.27 35.58 132.05 39.95"/><line class="cls-5" x1="116.72" y1="36.17" x2="125.93" y2="26.96"/><line class="cls-12" x1="118.91" y1="33.98" x2="125.93" y2="26.96"/><polygon class="cls-13" points="116.72 36.17 121.07 34.34 119.08 33.81 118.55 31.82 116.72 36.17"/><line class="cls-5" x1="147.37" y1="36.17" x2="138.17" y2="26.96"/><line class="cls-12" x1="145.18" y1="33.98" x2="138.17" y2="26.96"/><polygon class="cls-13" points="147.37 36.17 145.55 31.82 145.02 33.81 143.03 34.34 147.37 36.17"/><line class="cls-5" x1="132.05" y1="61.01" x2="132.05" y2="47.98"/><line class="cls-12" x1="132.05" y1="57.91" x2="132.05" y2="47.98"/><polygon class="cls-13" points="132.05 61.01 133.83 56.64 132.05 57.68 130.27 56.64 132.05 61.01"/><line class="cls-5" x1="132.05" y1="80.31" x2="132.05" y2="67.29"/><line class="cls-12" x1="132.05" y1="77.21" x2="132.05" y2="67.29"/><polygon class="cls-13" points="132.05 80.31 133.83 75.95 132.05 76.98 130.27 75.95 132.05 80.31"/><line class="cls-5" x1="148.05" y1="80.31" x2="148.05" y2="67.29"/><line class="cls-12" x1="148.05" y1="77.21" x2="148.05" y2="67.29"/><polygon class="cls-13" points="148.05 80.31 149.83 75.95 148.05 76.98 146.26 75.95 148.05 80.31"/><line class="cls-5" x1="116.05" y1="80.31" x2="116.05" y2="67.29"/><line class="cls-12" x1="116.05" y1="77.21" x2="116.05" y2="67.29"/><polygon class="cls-13" points="116.05 80.31 117.83 75.95 116.05 76.98 114.27 75.95 116.05 80.31"/><path class="cls-14" d="M85.31,248.63s-45.13.16-37.13,8,16.39,8.61,30.51,8.23,30.46-5.66,58.71-6,56,15.11,77.68-.38S186,242.21,163.44,244.85,85.31,248.63,85.31,248.63Z"/><path class="cls-15" d="M103.94,149.48s1.16,6.62,2.53,8.14a1.48,1.48,0,0,0,.37,1.27l.32,2.85a6.06,6.06,0,0,0-1.16,1.81,1.72,1.72,0,0,0,.42,1.08l.84-.15a6.26,6.26,0,0,0-.63,1.47c0,.34.27.64,1.21.59,0,0-.1.34.9.64s5.54-3.53,5.8-5.3a24.83,24.83,0,0,0-.26-6.57c-.27-.63-6-7.79-6-7.79Z"/><path class="cls-16" d="M106.1,151.21a3.92,3.92,0,0,0,1.76,3.13,7,7,0,0,1,2.07,2.45s-.71,4.39.76,4.39,2.25-5,2.25-5.7a30.74,30.74,0,0,0-1.4-4.79c-.41-1.1-3.22-3.17-3.22-3.17l-2.22,1.27Z"/><path class="cls-17" d="M109.86,147.74s.76,1,.61,1.39a9.81,9.81,0,0,1-3.38,2.91,6.7,6.7,0,0,1-3.78,1c-.32-.11-.8-1.17-.8-1.17Z"/><path class="cls-10" d="M83.84,79s10.31-1.42,12.5,8c1.7,7.24,3.15,31,3.15,31l10.82,29.66c.85,1.61-7.53,6-8.37,4.43,0,0-13.77-27.22-15-30.88S74.84,83.9,83.84,79Z"/><path class="cls-5" d="M183.83,85.39c-1.05,7.68-16.34,28.67-20.65,32.7-2.27,2.12-17.63,10.26-25.51,12.39-2.19.6-6.41-7.49-4.39-8.53,0,0,22.24-13.15,23.74-14.5s9.25-23.34,12.8-26.46C175.66,75.84,184.88,77.71,183.83,85.39Z"/><path class="cls-17" d="M137.45,125.25c1.05,2.2,1.29,4.28.52,4.65s-2.25-1.11-3.31-3.3-1.29-4.28-.52-4.65S136.39,123.06,137.45,125.25Z"/><path class="cls-18" d="M158.75,106.27a23.56,23.56,0,0,1,5.46,4.35.16.16,0,0,0,.22,0,.15.15,0,0,0,0-.18,8.51,8.51,0,0,0-2.32-2.81,8.72,8.72,0,0,0-3.27-1.65.17.17,0,0,0-.19.12A.17.17,0,0,0,158.75,106.27Z"/><path class="cls-18" d="M158.37,106.93a24.08,24.08,0,0,0,1.57,3.18,24.88,24.88,0,0,0,2,2.94.17.17,0,0,0,.22,0,.18.18,0,0,0,0-.18,25.7,25.7,0,0,0-3.56-6.11.15.15,0,0,0-.22,0A.14.14,0,0,0,158.37,106.93Z"/><path class="cls-19" d="M183.93,235c-.07-.2-7.39.57-7.39.57a43.22,43.22,0,0,1-6.3,5.4c-3.65,2.44-8.21,2.65-8.93,5.44s.68,2.71.68,2.71,5.22.61,8.22-.48,7.25-2.49,7.25-2.49l.39,1.17a12.21,12.21,0,0,0,7.69-1.39S186.79,243,183.93,235Z"/><path class="cls-20" d="M178.69,235.39l-2.15.22a43.22,43.22,0,0,1-6.3,5.4c-3.62,2.42-8.14,2.65-8.91,5.38C170,248.63,176.89,242.87,178.69,235.39Z"/><path class="cls-21" d="M188.94,149.25s-4.9,30.88-5.51,37.63,1.5,16.72,1.85,22.22a157.68,157.68,0,0,1-.94,25.55c.67,3.07-11.58,5.82-12.25,2.75,0,0,.63-3.15-.91-21.12-.76-9-3.07-19.79-5.12-31.79s-1-42.88-1-42.88,5.34-8.31,13.93-6.56S188.94,149.25,188.94,149.25Z"/><g class="cls-22"><path class="cls-23" d="M180.28,238.05c.07-.87,1.51-21.49,1.21-25.61-.15-2.07-1-6.65-1.92-11.51s-1.8-9.67-2-11.83c-.31-4.23,2.22-38.23,2.25-38.58l-.54,0c-.11,1.4-2.57,34.39-2.25,38.66.16,2.18,1.08,7.12,2,11.89s1.76,9.41,1.91,11.45c.3,4.08-1.19,25.32-1.21,25.53Z"/></g><path class="cls-19" d="M201.06,244.2s-2.08,2.74-8.67,1.56c0,0-2.09,6-5,7.51s-10.76,4.37-11.16,7,4.7,3.33,10.57,2.87S197,258.36,197,258.36l.59.71s3.92-1,5.55-2.67S201.06,244.2,201.06,244.2Z"/><path class="cls-20" d="M180.61,259.58c9.46.57,17.28-5.69,17.68-13.87a13.6,13.6,0,0,1-5.9,0s-2.09,6-5,7.51c-2,1-6,2.59-8.69,4.32a2.38,2.38,0,0,0,.05.26A2.09,2.09,0,0,0,180.61,259.58Z"/><path class="cls-24" d="M198,154.13c0,.75-2.51,33.34-.73,43.65s6.07,13.59,5.63,42l-.43,6.17c.59,3-11.07,5.3-11.67,2.32a80.81,80.81,0,0,0-2.1-24.38c-3.21-13.2-14.76-49.2-16-70.56C171.57,132.56,198.36,135.34,198,154.13Z"/><path class="cls-25" d="M199.92,249.06a.27.27,0,0,0,.27-.28c0-.21.37-21.38-.38-28.86-.94-9.4-4.29-21.74-5.3-25.3-2-7.23.18-41.31.2-41.65a.28.28,0,0,0-.25-.31.27.27,0,0,0-.29.27c-.09,1.4-2.25,34.53-.18,41.85,1,3.55,4.35,15.85,5.28,25.2.75,7.45.38,28.58.38,28.79a.28.28,0,0,0,.26.29Z"/><path class="cls-4" d="M184.86,72.74s13.41,3.71,16,7,4.34,11.55,2.83,19.19-6.21,26.16-6.21,26.16,4.15,18.11,3.54,21.54c-.95,5.34-38,9.92-37.61,2.67S167,123.76,167,123.76s-1.9-19.83-1.7-24.27,2.71-14.65,5.13-17.67S184.86,72.74,184.86,72.74Z"/><path class="cls-26" d="M177,83.51c-2.2-1.73-1.79-3.75,1-7.28s6.81-5,9-3.25,3.27,3,.49,6.52S179.19,85.25,177,83.51Z"/><path class="cls-19" d="M187,70.86a41.84,41.84,0,0,0,5.49-9c2.63-5.67,1.58-13.8-5.78-17.52s-14.44-.62-16.6,5.36S172.84,63.93,187,70.86Z"/><path class="cls-16" d="M186.54,64.94c0,.24,1.72,7.2,1.8,9.36.22,5.55-10.94,10.49-11.47,5.93-.16-1.4-.45-8.23-.45-8.23Z"/><path class="cls-27" d="M186.4,66.61s-1,9.22-7,10.07c-3.32.48-3.2-7.81-3.2-7.81S175.85,63.23,186.4,66.61Z"/><path class="cls-16" d="M182.31,46.19s-6.93-1.4-10.51,3.61-2.1,8.31-2.2,9.77-2.28,12.84,2.94,13.69c5.79.95,11.16-2.67,12.78-6.44,0,0,4.1.52,5.28-2.63s-1.74-6.11-4-2.93C186.64,61.26,191.61,49,182.31,46.19Z"/><path class="cls-27" d="M186.85,64.25s.41-3.52,2.19-2.88.51,4.31-2,4.25l.57-1.19Z"/><path class="cls-19" d="M186.64,61.26a19.09,19.09,0,0,0-.49,1.91c-.06.46-1.23,0-.62-2.87s-2.48-4.12-2.64-5.76,2.64-3.8,2.18-4.47c0,0,.68-1.83-4.35-1.47s-7.8.73-8.75-.68-1.9-6.16,7.75-5.8S191.83,53.26,186.64,61.26Z"/><path class="cls-19" d="M171.69,51.67c-.11-.56,1.92-1.46,2.95-1.84-2.34.21-6.93,1.12-7,.63s.86-.63,1.58-.93a2.93,2.93,0,0,1-1.52-.88,5.15,5.15,0,0,1-1.39-2.51c.14-.19,1.18.67,2.06.82a6.14,6.14,0,0,1-.85-3.39c0-2.6,1.9-4.46,2.34-4.35.24.12.19,1.66.29,2.48.23-.84,1.06-2.16,1.42-2s.89,1.32,1.81,1.92.56-.84.91-1.22,6,1.1,8.28,2.2c1.45.69,3.82,1.72,4.38,3.37s.89,4.86-.28,5.23c-.51.17-4.7-1.33-6-1C177.07,51,171.77,52.08,171.69,51.67Z"/><path class="cls-19" d="M174.59,59.57c-.07.63.22,1.17.63,1.2s.81-.45.87-1.07-.22-1.17-.63-1.21S174.65,58.94,174.59,59.57Z"/><path class="cls-19" d="M178.12,58.05a6,6,0,0,0-2.2-1.32,2.69,2.69,0,0,0-1.53,0l-.45-1.27a6,6,0,0,1,2.67.26,3.87,3.87,0,0,1,1.85,1.45Z"/><path class="cls-19" d="M169.76,59.34c-.06.6.18,1.11.54,1.14s.71-.43.77-1-.18-1.11-.54-1.14S169.82,58.74,169.76,59.34Z"/><path class="cls-19" d="M172,55.35l-.25,1.32a2.64,2.64,0,0,0-1.51.19,3,3,0,0,0-.8.44c-.23,0-.19-.93,0-1.38A6,6,0,0,1,172,55.35Z"/><path class="cls-27" d="M171.7,56.67a6.31,6.31,0,0,1,.43,2c-.09.72-2.19,4.32-2.25,5.09S172.25,65,172.25,65s-3.06.37-3.08-1.06c0-1,2.56-4.9,2.62-5.26A17.18,17.18,0,0,0,171.7,56.67Z"/><path class="cls-27" d="M177,65.73a16,16,0,0,1-4,.93,6.09,6.09,0,0,1-2-.14,4.43,4.43,0,0,1-1.77-1h0a.1.1,0,0,0-.14,0,.09.09,0,0,0,0,.13,4,4,0,0,0,1.79,1.23,5.76,5.76,0,0,0,2.17.24,9,9,0,0,0,2.12-.4,11.73,11.73,0,0,0,2-.85.1.1,0,0,0,0-.13A.09.09,0,0,0,177,65.73Z"/><path class="cls-27" d="M177,66.48c.05-.21.16-.42.11-.59s-.16-.26-.37-.35a.06.06,0,0,1,0-.07.05.05,0,0,1,0,0,.49.49,0,0,1,.37.06.5.5,0,0,1,.26.35,1,1,0,0,1-.29.69,0,0,0,0,1-.07,0,.06.06,0,0,1,0-.05Z"/><path class="cls-15" d="M119.82,135a1.12,1.12,0,0,1-1.95-1.09c.37-.66,1.27-1.23,1.8-.93S120.19,134.34,119.82,135Z"/><path class="cls-15" d="M121.34,136.26a1,1,0,0,1-1.48.35,1,1,0,0,1-.46-1.44c.37-.66,1.26-1.24,1.8-.93S121.71,135.6,121.34,136.26Z"/><path class="cls-15" d="M123.07,137.39a1.12,1.12,0,0,1-1.95-1.09c.37-.66,1.27-1.23,1.8-.93S123.44,136.73,123.07,137.39Z"/><path class="cls-15" d="M125.09,138.27a1.12,1.12,0,0,1-2-1.09c.37-.65,1.27-1.23,1.8-.93S125.45,137.62,125.09,138.27Z"/><path class="cls-19" d="M89.11,242c.06-.21,9.4-.34,9.4-.34a14.29,14.29,0,0,0,4.9,4.92c4.69,2.84,10.54,4,11.39,5.19a2.76,2.76,0,0,1,.11,2.28,32.34,32.34,0,0,1-10.71.5,31.9,31.9,0,0,1-7.48-2.06l-.28,1.21a12.28,12.28,0,0,1-7.83-.6S87.06,250.16,89.11,242Z"/><path class="cls-20" d="M114.8,251.73c-.85-1.24-6.7-2.35-11.39-5.19a14.29,14.29,0,0,1-4.9-4.92l-3.67.07c.07,3.42,2.69,6.05,4.53,7.9C104.77,252.83,114.84,251.79,114.8,251.73Z"/><path class="cls-21" d="M76.46,156.94S83,191.34,84.36,198s-.27,14.17-.08,19.71,3.24,23.72,3.24,23.72c-.33,3.14,12.2,4.58,12.53,1.43,0,0-.32,1.17-.7-16.95s1.38-22.82,2.14-35-4.43-43.31-4.43-43.31-3.82-8.58-12.21-5.91S76.46,156.94,76.46,156.94Z"/><path class="cls-25" d="M89.08,153.53c.69,0,3.13,27.49.87,36.36s-7,4.53-7.66.35S75.51,153.53,89.08,153.53Z"/><g class="cls-22"><path class="cls-23" d="M91.36,244.29c-.13-.87-3.09-21.32-3.09-25.45,0-2.08.52-6.71,1.07-11.62s1.09-9.78,1.09-11.94c0-4.25-5-38-5.08-38.31l.54-.08C86.1,158.28,91,191,91,195.28c0,2.19-.55,7.17-1.09,12-.52,4.68-1.06,9.51-1.06,11.56,0,4.09,3,25.16,3.07,25.37Z"/></g><path class="cls-19" d="M62,244.3s2.23,2.66,8.79,1.17c0,0,2.53,5.62,5.39,7.3,9.45,5.53,11.23,5,11.53,6.48.34,1.72-5.33,3.49-11.25,3.31a14.85,14.85,0,0,1-9.67-4.24l-.56.75s-4-.8-5.69-2.42S62,244.3,62,244.3Z"/><path class="cls-20" d="M74.45,257.18c4.36,1.24,8.36,1.76,12.21,1a99.11,99.11,0,0,1-10.53-5.37c-2.86-1.68-5.39-7.3-5.39-7.3a15.49,15.49,0,0,1-4.57.41C67.37,250.7,69.61,255.24,74.45,257.18Z"/><path class="cls-24" d="M63.75,153.22c0,.77,3.08,33.47,1.47,43.86s-5.88,13.76-5,42.33l.53,6.19c-.54,3,11.22,5.14,11.77,2.14a81.4,81.4,0,0,1,1.7-24.54c3-13.32,16.19-50.21,12.74-70.87S63.06,134.35,63.75,153.22Z"/><path class="cls-25" d="M63.37,248.19a.28.28,0,0,1-.27-.27c0-.2-.37-20.31.38-27.43.94-8.93,4.3-20.66,5.3-24,2-6.87-.17-39.26-.2-39.59a.28.28,0,0,1,.26-.29.27.27,0,0,1,.28.26c.1,1.33,2.25,32.81.18,39.77-1,3.37-4.34,15.07-5.28,24-.74,7.08-.38,27.16-.37,27.36a.28.28,0,0,1-.27.28Z"/><path class="cls-28" d="M63,157.44c.29,0,18.12,8,20.45,6.8s3.23-8.63,3.23-8.63l7.84-.26s.67,5.21,1.45,5.4a2.84,2.84,0,0,0,3.07-2.63c0-2-.49-7.77-.49-7.77l-30.4-1.94Z"/><path class="cls-4" d="M77,75.43S66.35,79.49,63.8,82.75,60,93.35,61.49,101s4.61,26.87,4.61,26.87-3.57,8.4-4.06,16.5c-.43,6.95,35.83,13,37,6.86,1.06-5.49-3.52-24.52-4.12-24.78,0,0,2.42-19.76,2.22-24.2s-3.23-14.72-5.65-17.74S77,75.43,77,75.43Z"/><path class="cls-26" d="M86.92,85.68c-1.42,1.8-5.44,1-9-1.77s-5.23-6.49-3.81-8.3,5.43-1,9,1.77S88.34,83.87,86.92,85.68Z"/><path class="cls-11" d="M73.52,76.86A33,33,0,0,1,84.9,93.54c4.32,14.27,3.66,26.69,3.5,33.32-.19,8.14-3.47,33.77-5.79,35.5-1.61,1.21-23.34-4.5-23.43-6.84,0-1.55,5.88-30,5.27-31.6S58.94,93.78,60.1,87C61,82.05,66.39,78.4,73.52,76.86Z"/><path class="cls-10" d="M73.57,77A32,32,0,0,0,69,79.74a14.82,14.82,0,0,0-3.74,3.71c-1,1.46-.86,3.31-.81,5.08s.24,3.55.43,5.33c.75,7.1,1.8,14.17,2.85,21.24l.77,5.31.37,2.66c.06.44.12.89.15,1.36s-.08.93-.15,1.37c-.51,3.55-1.16,7.06-1.79,10.58q-1.87,10.56-4,21.08l-.21,0,3.75-21.11c.6-3.52,1.23-7.05,1.73-10.58.07-.44.11-.88.14-1.29s-.09-.86-.15-1.31L68,120.48l-.8-5.3c-1-7.08-2-14.16-2.74-21.28-.18-1.78-.34-3.56-.4-5.36a24.32,24.32,0,0,1,0-2.7A5.39,5.39,0,0,1,65,83.25a15.53,15.53,0,0,1,3.88-3.75,33.74,33.74,0,0,1,4.63-2.74A.11.11,0,0,1,73.57,77Z"/><path class="cls-29" d="M60.59,93.35s9.4,30.82,14.47,35.16,13.45.72,13.45.72Z"/><polygon class="cls-10" points="70.51 137.59 83.67 136.56 83.56 135.67 70.43 136.68 70.51 137.59"/><path class="cls-11" d="M82.13,78.38a42.92,42.92,0,0,1,9.39,16.55c2.56,9.49,1.38,22.92,1.63,28.56s2.77,35.41,3.54,35.67,5.18-2.09,4.92-3.37S96.49,125,96.49,122.21,98.26,103.78,98,99.14c-.41-8.07-2.81-13-5.38-16.66C90.43,79.37,82.13,78.38,82.13,78.38Z"/><path class="cls-16" d="M75.27,67.14c0,.22-1.53,8.32-1.78,9.69a38.44,38.44,0,0,1,3.73,3.37c2.63,2.09,6.11,4.21,8.44,3.24L86,72Z"/><path class="cls-19" d="M75.36,72.29a41.36,41.36,0,0,1-5.49-9c-2.63-5.67-1.58-13.8,5.77-17.52s14.45-.62,16.6,5.36S89.52,65.36,75.36,72.29Z"/><path class="cls-27" d="M76.42,67.41s1.12,8.74,7,10.07c4.54,1,3.2-7.81,3.2-7.81S87,64,76.42,67.41Z"/><path class="cls-16" d="M80.06,47.62s6.93-1.4,10.51,3.61,2.1,8.31,2.2,9.77S95,73.84,89.83,74.69C84,75.64,78.66,72,77,68.25c0,0-4.09.52-5.27-2.63s1.73-6.11,4-2.93C75.73,62.69,70.75,50.41,80.06,47.62Z"/><path class="cls-27" d="M75,65.82s.42-3.51-1.46-3.31-1.5,4.08.94,4.6l-.28-1.29Z"/><path class="cls-19" d="M90.86,66.4s0,1.36.8,1.2,1.64-.83,1.93-.55.54.09.51-.33S94.3,64.58,90.86,66.4Z"/><path class="cls-19" d="M90.86,66.4s-3.17-.55-5-.69C84.31,65.59,83,66,82.25,69s.86.61.86.61.79-2,1.78-2.35,4.26,1.11,5.25.66A1.37,1.37,0,0,0,90.86,66.4Z"/><path class="cls-19" d="M75.73,62.69a19.09,19.09,0,0,1,.49,1.91c0,.46,1.23.05.61-2.87s1.33-5.21,1.49-6.85-1.12-2.56-1.24-3.36c0,0-.46-1.85,4.57-1.49s7.79.73,8.74-.68,1.91-6.16-7.75-5.8S70.54,54.69,75.73,62.69Z"/><path class="cls-19" d="M87.78,61c.06.63-.22,1.17-.64,1.2s-.8-.44-.87-1.07.22-1.17.64-1.2S87.71,60.37,87.78,61Z"/><path class="cls-19" d="M84.25,59.48a5.86,5.86,0,0,1,2.2-1.32,2.69,2.69,0,0,1,1.53,0l.44-1.27a5.9,5.9,0,0,0-2.66.26A3.87,3.87,0,0,0,83.9,58.6Z"/><path class="cls-19" d="M92.6,60.77c.07.6-.18,1.11-.54,1.14s-.7-.43-.77-1,.18-1.11.55-1.14S92.54,60.17,92.6,60.77Z"/><path class="cls-19" d="M90.42,56.78l.24,1.32a2.68,2.68,0,0,1,1.52.19,3.16,3.16,0,0,1,.8.44c.23,0,.19-.93,0-1.38A6,6,0,0,0,90.42,56.78Z"/><path class="cls-27" d="M90.66,58.1a6.12,6.12,0,0,0-.42,2c.09.72,2.19,4.32,2.25,5.09s-2.37,1.18-2.37,1.18,3,.37,3.08-1.06c0-1-2.57-4.9-2.63-5.26A17.18,17.18,0,0,1,90.66,58.1Z"/><path class="cls-27" d="M85.35,67.51a15.92,15.92,0,0,0,4,.93,6.41,6.41,0,0,0,2-.14,4.65,4.65,0,0,0,1.76-1h0a.1.1,0,0,1,.14,0,.09.09,0,0,1,0,.13,4.1,4.1,0,0,1-1.79,1.23,5.76,5.76,0,0,1-2.17.24,8.83,8.83,0,0,1-2.12-.4,11.05,11.05,0,0,1-2-.85.09.09,0,0,1,0-.13A.09.09,0,0,1,85.35,67.51Z"/><path class="cls-27" d="M85.32,68.32a.91.91,0,0,1-.28-.69.49.49,0,0,1,.25-.35.52.52,0,0,1,.38-.06.06.06,0,0,1,0,.06.08.08,0,0,1,0,0c-.21.09-.38.17-.37.34a1.35,1.35,0,0,0,.1.6h0s0,0,0,.06S85.34,68.33,85.32,68.32Z"/><path class="cls-19" d="M76.22,64.6s-1,13,13.27,12.13A5.63,5.63,0,0,0,95.14,71c.13-4.43-1.81-4.68-1.81-4.68l-.06,2.53s.32,1.22-2.59,1.79S79.53,70,76.94,64.17Z"/><path class="cls-19" d="M73.57,48.32a3.78,3.78,0,1,1-3.78-3.78A3.78,3.78,0,0,1,73.57,48.32Z"/><path class="cls-16" d="M119.1,125.6s-2.93,3.28-2.16,7.29c0,0,7,5.05,7.94,5.52a2.74,2.74,0,0,0,2,.42c.41-.14.47-.64,1-.88s1.16.32,1.59.07.32-1,.73-1.16,1.52.17,2-.09.43-1.67.64-2,.79.31,1.74-.69-6.73-8.16-6.73-8.16l1.37-1.72s3,1,3.57.48.47-1.92.47-1.92-5.35-2.56-6.89-1.45C124.59,122.59,123.22,123,119.1,125.6Z"/><path class="cls-15" d="M129.4,121.43a16.58,16.58,0,0,0-4,1.11c-.7.38-3.57,3.47-3.39,3.8s1.8,1,3.65-.09,1.16-.92,1.16-.92l7.46,7.5a8.27,8.27,0,0,0,2.85-3.77c1.77-.85-1.42-7.11-3.19-6.27A39.56,39.56,0,0,0,129.4,121.43Z"/><path class="cls-17" d="M117.4,124.34s1.43.12,1.64.52c.33.64.37,2.86-.05,5.06a7.51,7.51,0,0,1-2,4c-.33.19-1.59-.19-1.59-.19Z"/><path class="cls-9" d="M68.39,81.16c-.76-.11-9.17-.5-8.86,8.33s17,36.19,20.26,37.59c9.55,4.09,35.12,7.25,35.12,7.25,2.54.56,4.86-10.13,2.32-10.69,0,0-27.27-6.28-28.82-8s-11-27.22-12.89-29.38C75.52,86.28,71.52,81.65,68.39,81.16Z"/><path class="cls-29" d="M87.87,115.86a23.36,23.36,0,0,0-5,4.87.16.16,0,0,1-.23,0,.17.17,0,0,1-.05-.18,8.94,8.94,0,0,1,5.12-5,.18.18,0,0,1,.21.1A.17.17,0,0,1,87.87,115.86Z"/><path class="cls-29" d="M88.32,116.48a25.45,25.45,0,0,1-1.25,3.32,24,24,0,0,1-1.68,3.11.15.15,0,0,1-.22,0,.17.17,0,0,1-.07-.17,24.92,24.92,0,0,1,1.25-3.32A25.43,25.43,0,0,1,88,116.35a.15.15,0,0,1,.21,0A.15.15,0,0,1,88.32,116.48Z"/><path class="cls-28" d="M164.07,152.11s2.7,5.16,5.51,5.62,3-2.92,3-2.92,1.06,3.74,2.23,3.86,21.85-3,24.22-4-1.38-11.38-1.38-11.38l-25.42-.82Z"/><path class="cls-6" d="M198.85,121.11c.59-2.53,9.53-28.53,8.17-35.35s-17.3-11.57-17.3-11.57-11.92,25.63-15.8,34.86c-.77-5.7,3-30.71,3-30.71L176.58,76a57.15,57.15,0,0,0-6.35,4.22c-2,1.83-5.25,14.33-5.25,17.61s.14,16.16.14,20.35-4.38,31.22-4.2,32.13,8.41,6.86,9.87,5.58c.46-.4,1.1-4.48,1.73-10,.72,6.28,1.86,9.94,2.47,10.64,1.37,1.56,26.4-3.79,27.18-5.54S198.27,123.65,198.85,121.11Z"/><polygon class="cls-30" points="174.43 78.42 170.29 86.7 173.57 86.62 169.82 88.96 173.44 115.97 175.05 85.84 174.43 78.42"/><path class="cls-30" d="M173.44,116c.5-.14,16.12-25.78,16.12-25.78l-1.5-2.68,2.76.31,3.17-12-3.64.07-5.52,9.94Z"/><polygon class="cls-5" points="177.54 136.08 190.68 134.92 190.56 134.04 177.44 135.17 177.54 136.08"/><polygon class="cls-5" points="162.62 133.96 168.79 135.56 168.98 134.69 163.06 133.14 162.62 133.96"/><path class="cls-5" d="M189.14,75.22a62.25,62.25,0,0,1,9.48,4.93,13.59,13.59,0,0,1,2.1,1.7l.44.53c.13.2.23.43.34.64a4.45,4.45,0,0,1,.06,1.4,51.68,51.68,0,0,1-.8,5.3c-1.38,7-3.06,13.9-4.67,20.83l-1.21,5.19-.57,2.6a9.52,9.52,0,0,0-.3,2.58c.2,3.53.52,7.08.81,10.62l1.81,21.26a.09.09,0,0,1-.09.11.11.11,0,0,1-.12-.09c-.72-7.08-1.41-14.16-2-21.24-.31-3.55-.65-7.08-.87-10.64a5.81,5.81,0,0,1,.06-1.38c.07-.44.16-.88.24-1.32l.56-2.62,1.18-5.2c1.65-6.92,3.37-13.82,4.77-20.78a49.62,49.62,0,0,0,.83-5.24,4,4,0,0,0,0-1.25c-.1-.18-.17-.37-.28-.54l-.41-.49a13.58,13.58,0,0,0-2-1.67,62.4,62.4,0,0,0-9.36-5,.1.1,0,0,1-.05-.14A.11.11,0,0,1,189.14,75.22Z"/><path class="cls-30" d="M193.47,87.79s-4,30.77,1.92,31.36,8.68-14,8.68-14Z"/><path class="cls-7" d="M194,75.84l-6-4.13.47,2.07L173.9,108.93l1.72-22.71,1.3-7.92-.38-3.11-2.61,2.38-3.4,8.08,3.15.25-3.07,1.69,2.64,28.33a.71.71,0,0,0,.19.06l14.71-27.56-2.44-2.16,3.94.47C190.7,81.44,192.67,77.41,194,75.84Z"/><path class="cls-5" d="M173.44,116l-.53,7.92-.23,7.48c-.21,5-.24,10-.29,15,0,0,0,.08-.11.08a.1.1,0,0,1-.1-.08q-.17-3.75-.14-7.49c0-2.5,0-5,.09-7.49.21-5,.63-10.41,1.09-15.39a.11.11,0,0,1,.12-.08S173.44,115.93,173.44,116Z"/><ellipse class="cls-30" cx="174.4" cy="118.18" rx="0.86" ry="1.33"/><path class="cls-7" d="M175.09,117.78c0,.74-.39,1.33-.86,1.33s-.87-.59-.87-1.33.39-1.32.87-1.32S175.09,117.05,175.09,117.78Z"/><ellipse class="cls-30" cx="173.94" cy="130.26" rx="0.86" ry="1.33"/><ellipse class="cls-7" cx="173.77" cy="129.86" rx="0.86" ry="1.33"/><ellipse class="cls-30" cx="173.58" cy="142.55" rx="0.86" ry="1.33"/><ellipse class="cls-7" cx="173.4" cy="142.15" rx="0.86" ry="1.33"/><path class="cls-16" d="M192.82,164.09s.63,2.55,1.3,2.74,1.33-1,1.23-2.54C195.27,163,192.82,164.09,192.82,164.09Z"/><path class="cls-10" d="M224,203.31l-47.83,6.07c-1.15,0-2.75-5.08-2.79-6.23l-1.17-30.68a2.08,2.08,0,0,1,2-2.16l48.45-1.85c1.15,0,4.19,2,4.24,3.15l-.9,29.53A2.1,2.1,0,0,1,224,203.31Z"/><rect class="cls-11" x="174.39" y="171.31" width="53.46" height="37.51" rx="1.92" transform="translate(-7.11 7.81) rotate(-2.19)"/><path class="cls-31" d="M176.19,207.56q-.44-10.35-.76-20.72l-.3-10.36,0-1.29,0-.65a1.22,1.22,0,0,1,.49-1,1.08,1.08,0,0,1,.52-.21,3.65,3.65,0,0,1,.38,0l.65,0,1.29-.07,5.18-.25,20.7-.9q10.36-.42,20.72-.72l0,.43q-10.34.66-20.69,1.22l-20.7,1-5.18.23-1.29,0-.65,0h-.27l-.07,0a.17.17,0,0,0-.07.13l0,.64,0,1.3.21,10.36q.19,10.37.26,20.73Z"/><path class="cls-11" d="M190.81,170.51l0-5a3,3,0,0,1,2.85-3l12.21-.58a2,2,0,0,1,2.11,2l.11,6c0,.58-2.16.62-2.17,0l-.09-5a.81.81,0,0,0-.85-.81l-10.5.51a1.56,1.56,0,0,0-1.5,1.58l0,4.26C193,171.17,190.82,171.19,190.81,170.51Z"/><path class="cls-16" d="M199.07,154.71s-2.84,2.79-3.71,3.39a6.52,6.52,0,0,0-1.77,2.88c-.09.31-.53,1.63-.53,1.63s3.13-.2,3.5-.25c.67-.08.06,2.75-.07,3.27s-1.43,1-.92,3.07a1.28,1.28,0,0,0,2,.69,1.33,1.33,0,0,0,2.09.35,2.11,2.11,0,0,0,2.66,0s2,.47,2.87-2.34.36-11.41.36-11.41Z"/><path class="cls-17" d="M206.57,156.73s-.19,1.43-.6,1.61c-.65.3-2.87.24-5.05-.28A7.49,7.49,0,0,1,197,155.9c-.18-.34.26-1.58.26-1.58Z"/><path class="cls-7" d="M207,84.22c5.31,7.07,10.09,34.33,9,37.69s-8.6,34.27-8.6,34.27c-.62,2.52-11.24-.1-10.62-2.62,0,0,5.45-29.84,5.42-32.15s-7.94-27-8.61-29.75C192.26,86.07,199.93,74.8,207,84.22Z"/><path class="cls-5" d="M203.17,121a25,25,0,0,1,3.05-1.72,24.43,24.43,0,0,1,3.26-1.25.16.16,0,0,0,.1-.2.15.15,0,0,0-.15-.11,9,9,0,0,0-6.47,3,.16.16,0,0,0,0,.22A.15.15,0,0,0,203.17,121Z"/><path class="cls-5" d="M203.6,121.59a26.13,26.13,0,0,0,3.54,0,24.67,24.67,0,0,0,3.51-.48.17.17,0,0,0,.12-.19.18.18,0,0,0-.14-.13,26.28,26.28,0,0,0-3.55,0,24.9,24.9,0,0,0-3.51.49.15.15,0,0,0-.11.19A.15.15,0,0,0,203.6,121.59Z"/></g></g></g></svg>