<svg xmlns="http://www.w3.org/2000/svg" width="40" height="40" viewBox="0 0 40 40"><g transform="translate(-668 -84)"><circle cx="20" cy="20" r="20" transform="translate(668 84)" fill="#f89624"/><g transform="translate(677.977 93.977)"><path d="M18.855,13.456a11.639,11.639,0,0,1-3.655-.582,1.671,1.671,0,0,0-1.625.343l-2.305,1.74A12.738,12.738,0,0,1,5.543,9.23L7.231,6.985a1.657,1.657,0,0,0,.408-1.679,11.657,11.657,0,0,1-.584-3.661A1.647,1.647,0,0,0,5.41,0H1.645A1.647,1.647,0,0,0,0,1.645,18.876,18.876,0,0,0,18.855,20.5,1.647,1.647,0,0,0,20.5,18.855V15.1A1.647,1.647,0,0,0,18.855,13.456Z" fill="#fff"/></g></g></svg>