<svg xmlns="http://www.w3.org/2000/svg" width="17.266" height="11.5" viewBox="0 0 17.266 11.5"><g transform="translate(0.543 -82.676)"><g transform="translate(4.681 85.017)"><g transform="translate(0 0)"><path d="M159.825,156.416a3.409,3.409,0,1,0,3.409,3.409A3.411,3.411,0,0,0,159.825,156.416Zm-.259,2.4a.783.783,0,0,0-.776.776h-1.128a1.927,1.927,0,0,1,1.9-1.9Z" transform="translate(-156.416 -156.416)" fill="#c4c4c4"/></g></g><g transform="translate(0 83.176)"><g transform="translate(0 0)"><path d="M15.991,86.883c-.88-1.1-4.023-4.707-7.9-4.707s-7.022,3.6-7.9,4.707a.876.876,0,0,0,0,1.086c.88,1.1,4.023,4.707,7.9,4.707s7.022-3.6,7.9-4.707A.876.876,0,0,0,15.991,86.883Z" transform="translate(0 -82.176)" fill="none" stroke="#c4c4c4" stroke-width="1"/></g></g></g></svg>