<svg xmlns="http://www.w3.org/2000/svg" width="30.55" height="27.4" viewBox="0 0 30.55 27.4">
  <path id="heart_3_" data-name="heart(3)" d="M26.285,2.486A7.677,7.677,0,0,0,20.574,0a7.182,7.182,0,0,0-4.486,1.548,9.178,9.178,0,0,0-1.814,1.894,9.173,9.173,0,0,0-1.814-1.894A7.181,7.181,0,0,0,7.975,0,7.678,7.678,0,0,0,2.265,2.486,8.924,8.924,0,0,0,0,8.58a10.626,10.626,0,0,0,2.832,6.956A60.378,60.378,0,0,0,9.92,22.189c.982.837,2.1,1.786,3.251,2.8a1.676,1.676,0,0,0,2.207,0c1.156-1.011,2.27-1.96,3.252-2.8a60.35,60.35,0,0,0,7.088-6.653A10.625,10.625,0,0,0,28.55,8.58,8.923,8.923,0,0,0,26.285,2.486Zm0,0" transform="translate(1 1)" fill="none" stroke="#c4c4c4" stroke-width="2"/>
</svg>
