<svg xmlns="http://www.w3.org/2000/svg" width="20.482" height="20.175" viewBox="0 0 20.482 20.175"><g transform="translate(-5.56 -5.702)"><g transform="translate(5.56 5.702)"><path d="M101.355,204.5h4.31v13.361h-4.31Zm0,0" transform="translate(-100.945 -197.69)" fill="#fff"/><path d="M218.7,199.98a5.594,5.594,0,0,0-4.895,2.29v-2h-3.971v13.361h4.31v-6.711c0-1.939.893-3.448,2.586-3.448s1.97,1.878,1.97,4.187v5.972h4.31V204.29A4.31,4.31,0,0,0,218.7,199.98Zm0,0" transform="translate(-202.526 -193.454)" fill="#fff"/><path d="M100.025,99.882a2.565,2.565,0,1,1-2.565-2.566A2.565,2.565,0,0,1,100.025,99.882Zm0,0" transform="translate(-94.895 -97.316)" fill="#fff"/></g></g></svg>