<svg xmlns="http://www.w3.org/2000/svg" width="17.578" height="20" viewBox="0 0 17.578 20"><g transform="translate(-31)"><g transform="translate(35.482 2.461)"><path d="M155.307,60a4.306,4.306,0,0,0-2.318,7.935,4.4,4.4,0,0,0,4.283.234.615.615,0,0,0-.514-1.118,3.187,3.187,0,0,1-3.1-.152,3.076,3.076,0,1,1,4.73-2.592.615.615,0,0,1-1.23.009s0-.006,0-.009a1.848,1.848,0,1,0-.615,1.374,1.845,1.845,0,0,0,3.076-1.374A4.312,4.312,0,0,0,155.307,60Zm.607,4.405a.614.614,0,1,1,0-.169A.616.616,0,0,0,155.913,64.405Z" transform="translate(-151 -60)"/></g><g transform="translate(31)"><path d="M48.578,7.694a.59.59,0,0,0-.172-.413L46.234,5.109V.586A.586.586,0,0,0,45.648,0H33.93a.586.586,0,0,0-.586.586V5.109L31.172,7.281l-.006.006A.589.589,0,0,0,31,7.694h0V18.242A1.76,1.76,0,0,0,32.758,20H46.82a1.76,1.76,0,0,0,1.758-1.758V7.7Zm-2.344-.928.929.929-.929.929ZM34.516,5.352h0V1.172H45.063V5.351h0V9.8L41.89,12.969h-4.2L34.516,9.8ZM33.344,6.766V8.624L32.415,7.7ZM32.172,18V9.11l4.445,4.445Zm.829.829,4.687-4.687h4.2l4.687,4.688ZM47.406,18l-4.445-4.445L47.406,9.11Z" transform="translate(-31)"/></g></g></svg>