<svg xmlns="http://www.w3.org/2000/svg" width="162" height="165" viewBox="0 0 162 165">
  <g id="folder" transform="translate(-9 -33)">
    <ellipse id="Ellipse_23" data-name="Ellipse 23" cx="81" cy="82.5" rx="81" ry="82.5" transform="translate(9 33)" fill="#f7f7f7"/>
    <g id="Group_382" data-name="Group 382" transform="translate(36.722 43.639)">
      <path id="Path_446" data-name="Path 446" d="M126.691,58.872a2.174,2.174,0,0,1-1.542-.639l-6.166-6.166a2.18,2.18,0,0,1,3.083-3.083l6.166,6.166a2.18,2.18,0,0,1-1.542,3.722Z" transform="translate(-77.818 -48.344)" fill="#c4c4c4"/>
      <path id="Path_447" data-name="Path 447" d="M120.525,58.872a2.18,2.18,0,0,1-1.542-3.722l6.166-6.166a2.18,2.18,0,0,1,3.083,3.083l-6.166,6.166A2.172,2.172,0,0,1,120.525,58.872Z" transform="translate(-77.818 -48.345)" fill="#c4c4c4"/>
      <circle id="Ellipse_24" data-name="Ellipse 24" cx="2" cy="2" r="2" transform="translate(68.278 12.361)" fill="#707070"/>
      <circle id="Ellipse_25" data-name="Ellipse 25" cx="2.5" cy="2.5" r="2.5" transform="translate(102.278 13.361)" fill="#707070"/>
      <path id="Path_448" data-name="Path 448" d="M139.941,237.263H52.722A8.731,8.731,0,0,1,44,228.541V224.18A2.179,2.179,0,0,1,46.18,222h100.3a2.179,2.179,0,0,1,2.18,2.18v4.361A8.731,8.731,0,0,1,139.941,237.263Zm-91.58-10.9v2.18a4.367,4.367,0,0,0,4.361,4.361h87.219a4.367,4.367,0,0,0,4.361-4.361v-2.18Z" transform="translate(-44 -127.337)" fill="#c4c4c4"/>
    </g>
    <g id="Group_383" data-name="Group 383" transform="translate(28 53.127)">
      <path id="Path_449" data-name="Path 449" d="M97.414,159.286h42a8.063,8.063,0,0,0,8.152-7.97V91.691a8.722,8.722,0,0,0-8.722-8.722h-63.7L70.3,72.935a7.834,7.834,0,0,0-6.329-3.185H39.68A7.6,7.6,0,0,0,32,77.258v74.057a8.063,8.063,0,0,0,8.152,7.97h46.36" transform="translate(-29.82 -67.57)" fill="#fff"/>
      <path id="Path_450" data-name="Path 450" d="M137.595,159.647h-42a2.18,2.18,0,1,1,0-4.361h42a5.89,5.89,0,0,0,5.971-5.79V89.872a6.549,6.549,0,0,0-6.541-6.541h-63.7A2.178,2.178,0,0,1,71.36,82.1l-4.744-9.839a5.675,5.675,0,0,0-4.461-2.147H37.861a5.422,5.422,0,0,0-5.5,5.327V149.5a5.89,5.89,0,0,0,5.971,5.79H84.692a2.18,2.18,0,0,1,0,4.361H38.332A10.254,10.254,0,0,1,28,149.5V75.438a9.786,9.786,0,0,1,9.861-9.688H62.155a10.04,10.04,0,0,1,8.092,4.08,2.2,2.2,0,0,1,.2.339l4.244,8.8h62.331a10.915,10.915,0,0,1,10.9,10.9V149.5A10.254,10.254,0,0,1,137.595,159.647Z" transform="translate(-28 -65.75)" fill="#c4c4c4"/>
    </g>
    <path id="Path_451" data-name="Path 451" d="M97.444,94.361H82.18a2.18,2.18,0,0,1,0-4.361H97.444a2.18,2.18,0,0,1,0,4.361Z" transform="translate(-23.654 -23.654)" fill="#c4c4c4"/>
    <g id="Group_384" data-name="Group 384" transform="translate(92.148 115.121)">
      <path id="Path_452" data-name="Path 452" d="M200.9,199.373a12.289,12.289,0,0,0-5.315,1.214c0-.111.017-.219.017-.331a16.769,16.769,0,0,0-33.515-.881l-.045,0a12.364,12.364,0,1,0,0,24.728H200.9a12.364,12.364,0,1,0,0-24.728Z" transform="translate(-147.496 -181.296)" fill="#f7f7f7"/>
      <path id="Path_453" data-name="Path 453" d="M199.079,224.461H160.222a14.545,14.545,0,0,1-1.934-28.962,18.95,18.95,0,0,1,37.484.255,14.332,14.332,0,0,1,3.307-.383,14.545,14.545,0,1,1,0,29.09Zm-38.816-24.726a10.183,10.183,0,1,0-.041,20.365h38.857a10.184,10.184,0,1,0,0-20.368,10.09,10.09,0,0,0-4.376,1,2.18,2.18,0,0,1-3.12-2.01c0-.038.011-.23.015-.268a14.586,14.586,0,0,0-29.153-.788,2.182,2.182,0,0,1-2.178,2.068h0Z" transform="translate(-145.676 -179.476)" fill="#c4c4c4"/>
    </g>
    <text id="No_Result_Found" data-name="No Result Found" transform="translate(25 186)" fill="#707070" font-size="18" font-family="Lato-Regular, Lato"><tspan x="0" y="0">No Result Found</tspan></text>
  </g>
</svg>
