<svg xmlns="http://www.w3.org/2000/svg" width="21.494" height="23" viewBox="0 0 21.494 23"><path d="M374.752,147.454a.414.414,0,0,0-.078-.046.493.493,0,0,0-.087-.023.462.462,0,0,0-.262.023.44.44,0,0,0-.152.1.461.461,0,0,0,0,.649.387.387,0,0,0,.152.1.458.458,0,0,0,.175.037.551.551,0,0,0,.087-.009c.032-.009.06-.018.087-.027s.055-.028.078-.041a.5.5,0,0,0,.074-.06.466.466,0,0,0,.133-.322.476.476,0,0,0-.133-.327A.284.284,0,0,0,374.752,147.454Zm0,0" transform="translate(-355.224 -139.961)" fill="#707070"/><path d="M335.064,147.647c-.014-.028-.028-.051-.041-.078a.782.782,0,0,0-.06-.069.452.452,0,0,0-.649,0,.449.449,0,0,0-.1.5.49.49,0,0,0,.248.248.463.463,0,0,0,.179.037.449.449,0,0,0,.322-.138.4.4,0,0,0,.1-.147.459.459,0,0,0,.037-.175.635.635,0,0,0-.009-.092C335.082,147.707,335.073,147.674,335.064,147.647Zm0,0" transform="translate(-317.366 -139.951)" fill="#707070"/><path d="M20.334,5.243H17.266V.46a.46.46,0,0,0-.46-.46H4.829a.46.46,0,0,0-.46.46V5.243H1.3A1.232,1.232,0,0,0,.07,6.473v9.935a1.232,1.232,0,0,0,1.23,1.23H4.369v4.9a.46.46,0,0,0,.46.46H16.805a.46.46,0,0,0,.46-.46v-4.9h3.068a1.232,1.232,0,0,0,1.23-1.23V6.473A1.232,1.232,0,0,0,20.334,5.243ZM5.289.92H16.346V5.243H5.289Zm0,21.16v-8.8H16.346v8.8Zm15.355-5.671a.311.311,0,0,1-.311.311H17.266V13.278h1.443a.46.46,0,0,0,0-.92H2.926a.46.46,0,0,0,0,.92H4.369v3.441H1.3a.311.311,0,0,1-.311-.311V6.473a.311.311,0,0,1,.311-.31H20.334a.311.311,0,0,1,.311.31Zm0,0" transform="translate(-0.07)" fill="#707070"/><path d="M124.753,296.912h5.539a.46.46,0,1,0,0-.92h-5.539a.46.46,0,1,0,0,.92Zm0,0" transform="translate(-118.043 -281.1)" fill="#707070"/><path d="M132.827,342.242h-8.074a.46.46,0,1,0,0,.92h8.074a.46.46,0,1,0,0-.92Zm0,0" transform="translate(-118.043 -325.023)" fill="#707070"/><path d="M132.827,388.492h-8.074a.46.46,0,1,0,0,.92h8.074a.46.46,0,1,0,0-.92Zm0,0" transform="translate(-118.043 -368.946)" fill="#707070"/></svg>