<svg xmlns="http://www.w3.org/2000/svg" width="19.333" height="21" viewBox="0 0 19.333 21"><g transform="translate(-10.82 -10)"><g transform="translate(11.32 10.5)"><path d="M320.085,18.708A2.708,2.708,0,1,1,317.376,16,2.708,2.708,0,0,1,320.085,18.708Zm0,0" transform="translate(-302.376 -15.375)" fill="none" stroke="#000" stroke-width="1"/><path d="M302,6.667a3.333,3.333,0,1,1,3.333-3.333A3.337,3.337,0,0,1,302,6.667Zm0-5.417a2.083,2.083,0,1,0,2.083,2.083A2.086,2.086,0,0,0,302,1.25Zm0,0" transform="translate(-287.001)" fill="none" stroke="#000" stroke-width="1"/><path d="M320.085,360.04a2.708,2.708,0,1,1-2.708-2.708A2.708,2.708,0,0,1,320.085,360.04Zm0,0" transform="translate(-302.376 -343.374)" fill="none" stroke="#000" stroke-width="1"/><path d="M302,348a3.333,3.333,0,1,1,3.333-3.333A3.337,3.337,0,0,1,302,348Zm0-5.417a2.083,2.083,0,1,0,2.083,2.083A2.086,2.086,0,0,0,302,342.582Zm0,0" transform="translate(-287.001 -327.999)" fill="none" stroke="#000" stroke-width="1"/><path d="M21.417,189.376a2.708,2.708,0,1,1-2.708-2.708A2.708,2.708,0,0,1,21.417,189.376Zm0,0" transform="translate(-15.375 -179.376)" fill="none" stroke="#000" stroke-width="1"/><path d="M3.333,177.335A3.333,3.333,0,1,1,6.667,174,3.337,3.337,0,0,1,3.333,177.335Zm0-5.417A2.083,2.083,0,1,0,5.417,174,2.086,2.086,0,0,0,3.333,171.918Zm0,0" transform="translate(0 -164.001)" fill="none" stroke="#000" stroke-width="1"/><path d="M115,95.938a.642.642,0,0,1-.569-.4.876.876,0,0,1,.245-1.071l6.068-4.152a.6.6,0,0,1,.892.293.876.876,0,0,1-.245,1.071l-6.068,4.152A.568.568,0,0,1,115,95.938Zm0,0" transform="translate(-108.88 -86.881)" stroke="#000" stroke-width="1"/><path d="M120.589,270.988a.566.566,0,0,1-.3-.086l-5.613-3.46a.684.684,0,0,1-.226-.892.58.58,0,0,1,.825-.245l5.613,3.46a.684.684,0,0,1,.226.892A.6.6,0,0,1,120.589,270.988Zm0,0" transform="translate(-108.902 -255.266)" stroke="#000" stroke-width="1"/></g></g></svg>