<svg xmlns="http://www.w3.org/2000/svg" width="19.767" height="23" viewBox="0 0 19.767 23"><path d="M20.065,4.808,15.366.193A.674.674,0,0,0,14.894,0H3.014A2.517,2.517,0,0,0,.5,2.514V20.486A2.517,2.517,0,0,0,3.014,23H17.752a2.517,2.517,0,0,0,2.514-2.514V5.289A.674.674,0,0,0,20.065,4.808Zm-4.5-2.528,2.377,2.335H15.782a.215.215,0,0,1-.214-.214Zm2.185,19.372H3.014a1.168,1.168,0,0,1-1.167-1.167V2.514A1.168,1.168,0,0,1,3.014,1.348H14.22V4.4a1.564,1.564,0,0,0,1.562,1.562h3.137V20.486A1.168,1.168,0,0,1,17.752,21.652Zm0,0" transform="translate(-0.5)" fill="#707070"/><path d="M108.364,238h-9.5a.674.674,0,1,0,0,1.348h9.5a.674.674,0,1,0,0-1.348Zm0,0" transform="translate(-93.803 -227.309)" fill="#707070"/><path d="M98.865,299.348h7.745a.674.674,0,0,0,0-1.348H98.865a.674.674,0,0,0,0,1.348Zm0,0" transform="translate(-93.803 -284.613)" fill="#707070"/><path d="M107.545,358h-8.68a.674.674,0,0,0,0,1.348h8.68a.674.674,0,0,0,0-1.348Zm0,0" transform="translate(-93.803 -341.918)" fill="#707070"/></svg>